<svg xmlns="http://www.w3.org/2000/svg" xmlns:xlink="http://www.w3.org/1999/xlink" width="44.37" height="44.293" viewBox="0 0 44.37 44.293">
  <defs>
    <clipPath id="clip-path">
      <rect id="Rectangle_9586" data-name="Rectangle 9586" width="44.37" height="44.293" fill="#fff"/>
    </clipPath>
  </defs>
  <g id="Group_165" data-name="Group 165" clip-path="url(#clip-path)">
    <path id="Path_646" data-name="Path 646" d="M42.238,29.237q-3.64-2.188-7.359-4.244a4.326,4.326,0,0,0-4.408.1A5.008,5.008,0,0,0,28.717,26.9a2.8,2.8,0,0,1-4.45.773c-1-.8-1.973-1.637-2.913-2.506A39.324,39.324,0,0,1,16.5,19.845a2.725,2.725,0,0,1,.5-3.882c.235-.189.491-.351.744-.516a4.53,4.53,0,0,0,1.568-6.094Q17.3,5.735,15.166,2.183A4.441,4.441,0,0,0,9.721.3C8.244.86,6.785,1.47,5.343,2.113A8.067,8.067,0,0,0,2.326,4.142,10.15,10.15,0,0,0,0,10.6c.128.968.2,1.946.393,2.9a26.692,26.692,0,0,0,3.641,8.745A56.208,56.208,0,0,0,18.176,37.657a35.827,35.827,0,0,0,10.138,5.622,14.243,14.243,0,0,0,7.883.734,7.553,7.553,0,0,0,5.531-4.006c.88-1.836,1.694-3.713,2.393-5.625a4.326,4.326,0,0,0-1.882-5.146m-1.522,4.436c-.577,1.409-1.186,2.8-1.757,4.215a4.582,4.582,0,0,1-3.517,2.747,12.379,12.379,0,0,1-1.434.2A15.791,15.791,0,0,1,28.055,39.5a38.378,38.378,0,0,1-9.449-5.9A53.42,53.42,0,0,1,8.058,22.122a27.88,27.88,0,0,1-4.045-8.295A9.492,9.492,0,0,1,3.86,8.384,4.382,4.382,0,0,1,6.415,5.421c1.476-.6,2.935-1.243,4.411-1.845a1.061,1.061,0,0,1,1.465.523q1.983,3.414,3.947,6.838a1.136,1.136,0,0,1-.525,1.7A6.456,6.456,0,0,0,12.8,16.1a6,6,0,0,0,.9,5.77,44.844,44.844,0,0,0,8.6,8.647A6.172,6.172,0,0,0,31.526,28.9c.616-.96,1.193-1.24,2.333-.547,2.063,1.255,4.177,2.428,6.269,3.635a1.139,1.139,0,0,1,.587,1.686" transform="translate(0 0)" fill="#fff"/>
    <path id="Path_647" data-name="Path 647" d="M134.1,4.04a20.315,20.315,0,0,1,2.658.25,15.815,15.815,0,0,1,11.28,7.885,15.844,15.844,0,0,1,2.152,8.024,1.724,1.724,0,0,0,3.416.348,5.241,5.241,0,0,0,.051-.773l.085-.016c-.2-1.319-.327-2.654-.618-3.953A19.594,19.594,0,0,0,134.109.575,1.718,1.718,0,0,0,132.294,2.3,1.749,1.749,0,0,0,134.1,4.04" transform="translate(-109.395 -0.475)" fill="#fff"/>
    <path id="Path_648" data-name="Path 648" d="M143.188,53.66a1.714,1.714,0,0,0,1.722,1.73,1.687,1.687,0,0,0,1.723-1.765,17.425,17.425,0,0,0-.25-2.441,12.635,12.635,0,0,0-12.059-10.145h-.173a1.725,1.725,0,0,0-1.857,1.726,1.746,1.746,0,0,0,1.851,1.74,9.9,9.9,0,0,1,1.836.216,9.133,9.133,0,0,1,7.207,8.939" transform="translate(-109.395 -33.935)" fill="#fff"/>
    <path id="Path_649" data-name="Path 649" d="M134.17,81.5a1.732,1.732,0,0,0-1.877,1.667,1.711,1.711,0,0,0,1.749,1.79,2.178,2.178,0,0,1,2.142,2.206,1.728,1.728,0,0,0,1.508,1.679,1.669,1.669,0,0,0,1.869-1.3,3.926,3.926,0,0,0-.006-1.279,5.611,5.611,0,0,0-5.385-4.76" transform="translate(-109.394 -67.395)" fill="#fff"/>
  </g>
</svg>
