<svg xmlns="http://www.w3.org/2000/svg" width="19.558" height="19.549" viewBox="0 0 19.558 19.549">
  <g id="Group_105" data-name="Group 105" transform="translate(0 0)">
    <path id="Path_74" data-name="Path 74" d="M4346.234,2465.31c0-1.609,0-3.219,0-4.828a6.108,6.108,0,0,0-.073-.91,4.8,4.8,0,0,0-4.7-4.051q-5-.013-10,0a4.3,4.3,0,0,0-.852.089,4.818,4.818,0,0,0-3.922,4.831q0,4.847,0,9.694a5.611,5.611,0,0,0,.072.872,4.807,4.807,0,0,0,4.716,4.052q4.981.013,9.962,0a4.431,4.431,0,0,0,1.937-.428,4.721,4.721,0,0,0,2.848-4.418C4346.263,2468.58,4346.234,2466.945,4346.234,2465.31Zm-1.956,4.922a2.851,2.851,0,0,1-2.877,2.875q-4.945.023-9.888,0a2.853,2.853,0,0,1-2.871-2.882q-.02-4.934,0-9.868a2.87,2.87,0,0,1,2.926-2.887c1.629-.009,3.258,0,4.886,0s3.245,0,4.868,0a2.892,2.892,0,0,1,2.062.8,2.794,2.794,0,0,1,.894,2.079Q4344.295,2465.289,4344.278,2470.232Z" transform="translate(-4326.687 -2455.516)" fill="#12243e"/>
    <path id="Path_75" data-name="Path 75" d="M4620.25,2744.245a4.886,4.886,0,1,0,4.881,4.891A4.841,4.841,0,0,0,4620.25,2744.245Zm0,7.822a2.936,2.936,0,1,1,2.927-2.95A2.9,2.9,0,0,1,4620.253,2752.067Z" transform="translate(-4610.47 -2739.357)" fill="#12243e"/>
    <path id="Path_76" data-name="Path 76" d="M5135.72,2686.39a.979.979,0,1,0,.98.982A.988.988,0,0,0,5135.72,2686.39Z" transform="translate(-5121.061 -2682.481)" fill="#12243e"/>
  </g>
</svg>
