<svg xmlns="http://www.w3.org/2000/svg" xmlns:xlink="http://www.w3.org/1999/xlink" width="93" height="93" viewBox="0 0 93 93">
  <defs>
    <linearGradient id="linear-gradient" x1="0.5" x2="0.5" y2="1" gradientUnits="objectBoundingBox">
      <stop offset="0" stop-color="#8fe97d"/>
      <stop offset="1" stop-color="#66d13f"/>
    </linearGradient>
    <filter id="Ellipse_29" x="0" y="0" width="93" height="93" filterUnits="userSpaceOnUse">
      <feOffset dy="3" input="SourceAlpha"/>
      <feGaussianBlur stdDeviation="3" result="blur"/>
      <feFlood flood-opacity="0.502"/>
      <feComposite operator="in" in2="blur"/>
      <feComposite in="SourceGraphic"/>
    </filter>
  </defs>
  <g id="Group_16935" data-name="Group 16935" transform="translate(692.006 41.117)">
    <g transform="matrix(1, 0, 0, 1, -692.01, -41.12)" filter="url(#Ellipse_29)">
      <circle id="Ellipse_29-2" data-name="Ellipse 29" cx="37.5" cy="37.5" r="37.5" transform="translate(9 6)" fill="url(#linear-gradient)"/>
    </g>
    <g id="Group_177" data-name="Group 177" transform="translate(-667.367 -19.907)">
      <g id="Group_176" data-name="Group 176" transform="translate(0 0)">
        <path id="Path_385" data-name="Path 385" d="M-569.371,118.584l3.025-10.744a21.5,21.5,0,0,1-2.97-10.927,21.593,21.593,0,0,1,21.737-21.568,21.63,21.63,0,0,1,21.4,21.4,21.592,21.592,0,0,1-21.568,21.737,21.54,21.54,0,0,1-10.544-2.75Zm11.646-6.776.66.4a17.873,17.873,0,0,0,9.318,2.612,17.93,17.93,0,0,0,17.909-18.05A17.961,17.961,0,0,0-547.607,79a17.93,17.93,0,0,0-18.049,17.909,17.846,17.846,0,0,0,2.828,9.663l.445.692-1.742,6.187Z" transform="translate(569.371 -75.345)" fill="#fff"/>
        <path id="Path_386" data-name="Path 386" d="M-485.422,159.928l-1.4-.076a1.693,1.693,0,0,0-1.2.412,6.376,6.376,0,0,0-2.1,3.213c-.5,2.213.271,4.923,2.258,7.634a22.71,22.71,0,0,0,12.241,8.9,5.965,5.965,0,0,0,5.052-.625,4.519,4.519,0,0,0,1.966-2.868l.223-1.044a.725.725,0,0,0-.406-.811l-4.73-2.18a.725.725,0,0,0-.878.216l-1.857,2.407a.531.531,0,0,1-.6.178,14.541,14.541,0,0,1-7.869-6.733.537.537,0,0,1,.068-.6l1.775-2.053a.725.725,0,0,0,.118-.759l-2.039-4.77A.725.725,0,0,0-485.422,159.928Z" transform="translate(500.987 -148.398)" fill="#fff"/>
      </g>
    </g>
  </g>
</svg>
