<svg xmlns="http://www.w3.org/2000/svg" xmlns:xlink="http://www.w3.org/1999/xlink" width="44.573" height="42.842" viewBox="0 0 44.573 42.842">
  <defs>
    <clipPath id="clip-path">
      <rect id="Rectangle_10333" data-name="Rectangle 10333" width="44.573" height="42.842" fill="#fff"/>
    </clipPath>
  </defs>
  <g id="Group_17229" data-name="Group 17229" clip-path="url(#clip-path)">
    <path id="Path_652" data-name="Path 652" d="M120.153,111.863l-11.379,10.381a1.243,1.243,0,0,0-.08,1.756l.652.713a1.242,1.242,0,0,0,1.756.077l.01-.009c.013.207.028.33.028.453,0,1.628-.011,3.256,0,4.884a4.706,4.706,0,0,0,4.86,4.852q5.294.014,10.588,0a4.7,4.7,0,0,0,4.84-4.867c0-1.614,0-3.227,0-4.841,0-.137.011-.273.02-.466l.01.009a1.286,1.286,0,0,0,1.788-.112l.594-.652a1.3,1.3,0,0,0-.086-1.837l-11.337-10.341a1.685,1.685,0,0,0-2.27,0m7.825,18.221c0,1.039-.583,1.523-1.724,1.421a46.229,46.229,0,0,0-9.808-.013c-1.211.151-1.853-.337-1.855-1.408q-.007-4.085.005-8.17a.674.674,0,0,1,.166-.451q3.215-2.953,6.45-5.883a.567.567,0,0,1,.1-.053c.673.611,1.355,1.228,2.035,1.848,1.458,1.33,2.919,2.657,4.363,4a.922.922,0,0,1,.255.582c.016,2.709.012,5.418.01,8.127" transform="translate(-89.611 -92.137)" fill="#fff"/>
    <path id="Path_653" data-name="Path 653" d="M59.966,67.221a7.316,7.316,0,1,0,7.357-7.286,7.3,7.3,0,0,0-7.357,7.286m11.179.028a3.864,3.864,0,1,1-3.866-3.861,3.857,3.857,0,0,1,3.866,3.861" transform="translate(-49.587 -49.56)" fill="#fff"/>
    <rect id="Rectangle_10332" data-name="Rectangle 10332" width="5.14" height="5.11" transform="translate(29.152 30.695)" fill="#fff"/>
    <path id="Path_654" data-name="Path 654" d="M31.547,14.656c.425,2.2,1.778,2.114,2.412,1.9.761-.254,1.374-.994,1-2.561A17.1,17.1,0,0,0,27.52,3.025,16.97,16.97,0,0,0,14.777.269a17.308,17.308,0,0,0-11.1,6.7A17.441,17.441,0,0,0,.03,16.8a17.756,17.756,0,0,0,1.692,8.5A41.049,41.049,0,0,0,8.209,35a70,70,0,0,0,7.2,7.241l.027.024a1.823,1.823,0,0,0,2.754-.1c.683-.935-.025-2.056-.809-2.8-1.85-1.754-3.7-3.516-5.442-5.371a40.227,40.227,0,0,1-6.615-9.131,14.7,14.7,0,0,1-1.693-9.25A13.877,13.877,0,0,1,9.1,6.395,13.449,13.449,0,0,1,21.66,4.062a13.652,13.652,0,0,1,9.887,10.594Z" transform="translate(0 0)" fill="#fff"/>
  </g>
</svg>
