<svg xmlns="http://www.w3.org/2000/svg" xmlns:xlink="http://www.w3.org/1999/xlink" width="39.421" height="44.778" viewBox="0 0 39.421 44.778">
  <defs>
    <clipPath id="clip-path">
      <rect id="Rectangle_9587" data-name="Rectangle 9587" width="39.421" height="44.778" fill="#fff"/>
    </clipPath>
  </defs>
  <g id="Group_167" data-name="Group 167" clip-path="url(#clip-path)">
    <path id="Path_650" data-name="Path 650" d="M38.766,15.983Q37.681,14.91,36.6,13.828t-2.185-2.178a.6.6,0,0,1-.2-.494q.01-3.876.006-7.751V1.82A1.594,1.594,0,0,0,32.421,0H7.01A1.594,1.594,0,0,0,5.188,1.8v2.04c0,2.4,0,4.892-.012,7.337a.742.742,0,0,1-.186.447C3.68,12.966,2.332,14.31,1.029,15.611L.6,16.037A1.8,1.8,0,0,0,0,17.359q0,3.058,0,6.117c0,5.6,0,11.4.018,17.093a4.427,4.427,0,0,0,.408,1.814,4.02,4.02,0,0,0,3.868,2.389q3.283.007,6.567.006h1.126l7.692,0h3c4.043,0,8.224,0,12.337-.007a4.807,4.807,0,0,0,1.3-.16,4.1,4.1,0,0,0,3.087-4.155q0-3.634,0-7.269,0-7.819.007-15.637a2.072,2.072,0,0,0-.655-1.564M3.942,17.337l1.222-1.218v2.442Zm30.3,1.17V16.038l1.237,1.235Zm2.022,2.746V39.344L27.223,30.3Zm-5.143.27a.654.654,0,0,1-.226.527c-2.151,2.138-4.32,4.308-6.448,6.45a.6.6,0,0,1-.487.2h0q-1.793-.006-3.585-.005c-1.615,0-3.285,0-4.927-.012A.738.738,0,0,1,15,28.506c-2.08-2.058-4.27-4.247-6.507-6.506a.676.676,0,0,1-.181-.4C8.3,16.294,8.3,10.9,8.3,5.693V3.132H31.117V6.36c0,4.97,0,10.109.007,15.164M7.374,39.61q3.788-3.788,7.572-7.582a.644.644,0,0,1,.526-.226q2.069.009,4.138.007,2.187,0,4.374.008a.628.628,0,0,1,.383.131c2.913,2.9,5.867,5.852,8.722,8.709l.97.971H5.355Zm4.789-9.347L3.131,39.3V21.223Z" transform="translate(0 0)" fill="#fff"/>
    <path id="Path_651" data-name="Path 651" d="M73.976,31.2a9.335,9.335,0,1,0-4.617,17.461h.024c.117-.011.236-.017.354-.023a4.21,4.21,0,0,0,.841-.1c1.089-.281,2.069-.542,3.027-.879a1.463,1.463,0,0,0,.835-1.827,1.491,1.491,0,0,0-1.584-1.087,3.533,3.533,0,0,0-.931.267,6.493,6.493,0,0,1-3.7.412A6.174,6.174,0,0,1,63.212,38.4a6.216,6.216,0,0,1,12.346.358,2.591,2.591,0,0,1-.007.742,1.033,1.033,0,0,1-2.045-.247,4.3,4.3,0,0,0-1.361-3.023,4.17,4.17,0,0,0-5.952.384,4.233,4.233,0,0,0-.914,3.322,4.02,4.02,0,0,0,2.479,3.17,3.98,3.98,0,0,0,3.962-.427c.2-.15.257-.149.457,0a3.951,3.951,0,0,0,3.6.561,4.094,4.094,0,0,0,2.673-2.589,6.414,6.414,0,0,0-.038-3.589A9.272,9.272,0,0,0,73.976,31.2m-3.588,8.09a1.086,1.086,0,0,1-1.026,1.05h-.005A1.052,1.052,0,0,1,68.32,39.31a1.024,1.024,0,0,1,.311-.74,1.044,1.044,0,0,1,.729-.306h.018a1.083,1.083,0,0,1,1.01,1.022" transform="translate(-49.648 -24.779)" fill="#fff"/>
  </g>
</svg>
