<svg xmlns="http://www.w3.org/2000/svg" width="11.458" height="22.11" viewBox="0 0 11.458 22.11">
  <path id="Path_73" data-name="Path 73" d="M4411.808,1234.095l1.094.089.7.06v3.522c-.071,0-.146,0-.223,0-.749.012-1.5.008-2.245.04a1.412,1.412,0,0,0-1.523,1.494c-.039.948-.009,1.9-.009,2.878h3.883c-.172,1.333-.34,2.634-.511,3.956H4409.6v10.07h-4.075v-10.063h-3.379v-3.948h3.377c0-.112,0-.2,0-.281.007-1.037-.019-2.075.029-3.11a4.589,4.589,0,0,1,4.235-4.662c.069-.009.137-.03.205-.046Z" transform="translate(-4402.146 -1234.095)" fill="#12243e"/>
</svg>
